<svg width="974" height="905" viewBox="0 0 974 905" fill="none" xmlns="http://www.w3.org/2000/svg">
<path fill-rule="evenodd" clip-rule="evenodd" d="M461.508 473.889C437.418 476.668 418.932 476.334 406.051 472.889C393.169 469.444 383.011 462.117 375.574 450.906C367.468 433.761 362.972 423.935 362.085 421.429C357.738 409.147 357.256 397.075 358.088 388.954C359.174 378.346 365.003 364.523 375.574 347.485C377.08 335.64 379.578 325.148 383.069 316.009C386.559 306.871 393.554 293.714 404.052 276.54L405.551 220.083C409.981 207.16 414.144 198 418.042 192.604C421.939 187.207 426.436 184.376 431.531 184.11C435.831 183.702 439.828 184.701 443.522 187.108C447.216 189.515 454.211 195.677 464.506 205.594C473.008 190.756 482.667 179.432 493.484 171.62C504.3 163.808 518.622 157.812 536.45 153.634L538.949 148.637L539.25 119.25L530.955 47.7146H519.963L536.95 22.7337C538.466 17.2293 539.965 13.2324 541.447 10.7429C542.928 8.25334 545.696 5.4223 549.75 2.24973C549.824 1.32982 553.157 0.829822 559.75 0.749734C566.343 0.669646 576.729 1.00298 590.909 1.74973C596.962 3.14006 601.125 4.97199 603.399 7.24553C605.672 9.51907 607.671 14.3487 609.394 21.7344L633.75 47.7497L618.387 48.7138L616.888 96.1775C614.751 104.318 612.753 109.813 610.893 112.665C609.033 115.516 606.036 117.682 601.9 119.16L577.419 120.659L574.421 149.637L576.42 153.634C588.923 157.208 597.417 160.039 601.9 162.127C612.667 167.142 622.406 174.404 629.878 187.108C635.11 196.001 640.524 208.288 647.865 221.082C654.328 232.347 666.152 252.165 683.337 280.536L700.324 295.525L708.818 312.512L729.302 328L738.795 297.024C719.476 267.713 709.817 249.061 709.817 241.067C709.817 237.725 711.835 234.576 713.814 232.573C716.569 229.784 720.353 228.07 726.804 228.576C731.104 228.914 735.268 231.578 739.294 236.57L796.75 390.952C791.032 409.693 786.036 423.682 781.762 432.92C777.487 442.158 771.159 451.317 762.776 460.399C750.697 467.174 740.538 471.171 732.3 472.39C724.061 473.608 710.571 472.442 691.831 468.892C685.268 465.888 680.938 463.057 678.841 460.399C671.066 450.543 667.814 438.042 663.852 431.421C658.287 422.122 654.957 413.462 653.86 405.441L627.88 321.006L515.467 317.508L504.975 402.943C499.24 426.162 493.078 443.149 486.489 453.904C479.9 464.658 471.573 471.32 461.508 473.889Z" fill="white"/>
<path fill-rule="evenodd" clip-rule="evenodd" d="M469.25 492.294C467.215 491.927 465.715 491.746 464.75 491.75C461.045 491.765 458.021 491.575 456.25 488.75C453.787 484.821 454.453 480.154 458.25 474.75L468.75 471.25H473.75L510.25 472.75L521.75 471.25L562.25 469.75C566.583 471.75 568.083 475.583 566.75 481.25C565.417 486.916 561.75 490.416 555.75 491.75L543.75 492.294L462.75 863.704H410.75C419.652 805.356 426.818 761.474 432.25 732.059C437.682 702.643 450.015 622.722 469.25 492.294ZM596.25 492.294C596.171 491.114 593.004 490.933 586.75 491.75C581.417 489.083 579.25 484.916 580.25 479.25C581.25 473.583 583.75 470.583 587.75 470.25L595.25 471.25H618.25L641.25 472.75L666.75 470.25C674.75 470.916 678.75 474.583 678.75 481.25C678.75 485.039 677.473 487.007 675.75 488.75C674.878 489.632 673.211 490.632 670.75 491.75L662.75 492.294L683.25 864.205H629.25C621.975 797.324 617.309 750.439 615.25 723.55C612.798 691.524 598.926 532.336 596.25 492.294Z" fill="white"/>
<path fill-rule="evenodd" clip-rule="evenodd" d="M469.25 491.793H543.75L462.75 863.204H410.75C419.652 804.856 426.818 760.974 432.25 731.558C437.682 702.143 450.015 622.221 469.25 491.793ZM596.25 491.793H662.75L683.25 863.704H629.25C621.975 796.824 617.309 749.939 615.25 723.049C612.798 691.023 598.926 531.836 596.25 491.793Z" stroke="#007B3D" stroke-width="1.5"/>
<path fill-rule="evenodd" clip-rule="evenodd" d="M515.75 160.427L459.377 160.692C431.252 160.824 408.128 182.902 406.695 210.99L405.75 229.504C406.631 219.984 407.797 213.31 409.25 209.481C411.556 203.405 414.219 199.909 417.25 195.967C421.832 190.005 427.022 184.975 431.25 183.953C440.917 181.617 451.75 189.126 463.75 206.478C465.76 202.591 467.427 199.588 468.75 197.468C471.392 193.237 474.205 188.668 479.25 183.953C489.25 174.61 501.417 166.768 515.75 160.427Z" fill="#D5F5E6"/>
<path fill-rule="evenodd" clip-rule="evenodd" d="M469.75 470.27C474.893 472.146 484.56 472.98 498.75 472.772C506.477 472.659 520.386 470.353 532.25 469.769C538.866 469.444 548.866 469.444 562.25 469.769L573.75 439.235H584.75L588.25 469.769C599.951 470.501 608.284 471.001 613.25 471.271C623.929 471.85 632.812 472.272 639.75 472.272C651.528 472.272 660.194 471.438 665.75 469.769L640.25 327.111L521.75 331.616C520.201 353.34 514.535 377.199 504.75 403.196C502.665 408.736 502.331 415.739 500.25 422.717C497.078 433.35 493.585 443.635 489.75 450.748C486.112 457.496 479.445 464.003 469.75 470.27Z" fill="#D5F5E6"/>
<path d="M664.96 470.102L653.511 403.323C653.441 402.914 653.715 402.526 654.123 402.455C654.531 402.385 654.919 402.66 654.989 403.068L666.382 469.519H668C674.351 469.519 679.5 474.673 679.5 481.032C679.5 487.39 674.351 492.544 668 492.544H589.104C583.474 492.544 578.909 487.975 578.909 482.338C578.909 481.866 578.942 481.395 579.007 480.928L579.606 476.63C580.145 472.762 583.14 469.736 586.932 469.112L584.07 439.986H574.269L563.278 469.169C566.344 469.879 568.516 472.743 568.267 475.981C568.245 476.26 568.206 476.537 568.149 476.811L567.234 481.185C565.85 487.804 560.021 492.544 553.267 492.544H461.798C457.583 492.544 454.166 489.124 454.166 484.904C454.166 484.106 454.291 483.312 454.536 482.552C455.203 480.488 456.036 477.822 457.033 474.555C457.154 474.159 457.573 473.935 457.969 474.057C458.365 474.178 458.588 474.597 458.467 474.994C457.468 478.268 456.634 480.942 455.964 483.015C455.766 483.625 455.666 484.263 455.666 484.904C455.666 488.294 458.411 491.043 461.798 491.043H553.267C559.311 491.043 564.528 486.8 565.766 480.878L566.68 476.504C566.724 476.293 566.755 476.08 566.771 475.865C566.981 473.13 564.942 470.741 562.213 470.519C556.009 470.398 551.619 470.335 549.048 470.333C542.087 470.325 522.457 471.465 518.35 472.015C509.027 473.264 504.09 473.444 496.026 473.172C495.763 473.163 495.763 473.163 495.501 473.154C492.62 473.056 491.242 473.023 489.404 473.023C482.734 473.023 477.751 472.855 474.445 472.518C470.565 472.123 468.808 471.57 469.007 470.164L470.492 470.375C470.508 470.266 470.478 470.185 470.458 470.149C470.563 470.23 470.779 470.329 471.097 470.429C471.833 470.661 473.006 470.862 474.597 471.024C477.842 471.355 482.781 471.521 489.404 471.521C491.263 471.521 492.655 471.555 495.552 471.653C495.814 471.662 495.814 471.662 496.076 471.671C504.062 471.94 508.918 471.764 518.151 470.527C522.329 469.967 542.025 468.823 549.05 468.831C551.562 468.834 555.789 468.893 561.735 469.008L573.048 438.97C573.158 438.678 573.438 438.485 573.75 438.485H584.75H591.25C591.664 438.485 592 438.821 592 439.235C592 439.65 591.664 439.986 591.25 439.986H585.577L588.447 469.195C591.759 469.742 598.375 470.019 608.25 470.019C611.962 470.019 630.102 471.033 635.32 471.524C641.266 472.084 651.155 471.611 664.96 470.102V470.102ZM665.778 471.02L665.833 471.516C651.563 473.098 641.355 473.6 635.18 473.019C630.005 472.533 611.91 471.521 608.25 471.521C597.692 471.521 590.829 471.207 587.604 470.568L587.611 470.535C584.258 470.884 581.56 473.478 581.092 476.837L580.493 481.135C580.437 481.534 580.409 481.936 580.409 482.338C580.409 487.145 584.302 491.043 589.104 491.043H668C673.523 491.043 678 486.56 678 481.032C678 475.503 673.523 471.02 668 471.02H665.778Z" fill="#007B3D"/>
<path d="M578.463 120.633L575.553 151.398C599.254 159.462 614.407 166.465 621.074 172.468C629.719 180.251 651.877 225.238 663.233 254.762C666.663 263.679 671.978 269.326 684.878 279.779L685.964 280.658C698.918 291.157 704.213 296.824 707.456 305.834C712.461 319.742 722.477 323.085 737.935 315.919C738.311 315.744 738.756 315.908 738.931 316.284C739.105 316.661 738.941 317.107 738.565 317.281C722.351 324.798 711.367 321.132 706.044 306.343C702.926 297.679 697.765 292.154 685.02 281.826L683.935 280.947C670.835 270.332 665.389 264.545 661.833 255.302C650.576 226.036 628.463 181.141 620.071 173.584C613.552 167.715 598.344 160.71 574.509 152.629C574.18 152.517 573.971 152.194 574.003 151.847L576.956 120.633H568.25C567.836 120.633 567.5 120.297 567.5 119.882C567.5 119.468 567.836 119.132 568.25 119.132H577.771C577.777 119.132 577.783 119.132 577.789 119.132H594.444C604.764 119.132 610.751 114.931 613.877 106.441C616.388 99.6197 617 91.7345 617 74.8786V63.398C617 63.2393 617 63.1103 617 62.8183C617.008 57.237 616.75 54.0213 615.555 49.118C615.528 49.0888 615.493 49.0529 615.452 49.0112C615.335 48.8942 615.172 48.7412 614.964 48.5537H543.457C543.043 48.5537 542.707 48.2175 542.707 47.8028C542.707 47.3882 543.043 47.052 543.457 47.052H615.25C615.433 47.052 615.61 47.1191 615.747 47.2407C616.633 48.0254 616.896 48.289 616.978 48.6246C618.237 53.7455 618.508 57.0769 618.501 62.8203C618.501 63.112 618.5 63.2402 618.5 63.398V74.8786C618.5 91.9245 617.881 99.9084 615.284 106.961C611.941 116.039 605.394 120.633 594.444 120.633H578.463ZM797.531 389.969L798.969 390.393C786.407 433.107 773.064 458.007 758.781 465.135C736.295 476.355 708.8 477.218 686.42 466.229C683.462 464.777 681.14 462.748 678.784 459.631C677.104 457.409 675.446 454.735 672.8 450.094C672.108 448.879 669.47 444.204 669.082 443.518C667.425 440.595 665.993 438.106 664.467 435.513C662.376 431.961 659.409 424.118 655.535 411.933L656.965 411.477C660.804 423.554 663.745 431.329 665.759 434.75C667.29 437.352 668.726 439.847 670.386 442.777C670.776 443.465 673.413 448.138 674.103 449.349C676.718 453.937 678.35 456.569 679.98 458.725C682.202 461.665 684.347 463.539 687.08 464.881C709.026 475.656 736.031 474.809 758.112 463.791C771.889 456.916 785.082 432.294 797.531 389.969Z" fill="#007B3D"/>
<path fill-rule="evenodd" clip-rule="evenodd" d="M591.75 158.425L600.75 161.929C607.083 181.284 611.917 197.802 615.25 211.484C618.583 225.165 620.75 245.521 621.75 272.551L609.25 269.047C610.25 247.357 608.417 228.169 603.75 211.484C601.717 204.216 597.717 186.53 591.75 158.425ZM515.25 160.427L523.75 156.923C525.75 171.718 526.75 183.397 526.75 191.962C526.75 200.527 526.75 209.203 526.75 217.991L513.75 236.511C515.75 230.505 516.75 216.99 516.75 195.967C516.75 174.943 516.25 163.097 515.25 160.427Z" fill="#D5F5E6"/>
<path d="M591.516 158.581L591.228 157.221L601.852 161.358L601.963 161.695C608.302 181.067 613.14 197.603 616.479 211.306C619.826 225.046 621.998 245.447 622.999 272.523L623.037 273.552L608.973 269.609L609.001 269.013C609.997 247.398 608.171 228.289 603.528 211.686C601.489 204.397 597.487 186.704 591.516 158.581ZM604.972 211.281C609.619 227.895 611.469 246.963 610.526 268.485L621.462 271.55C620.447 245.079 618.298 225.111 615.021 211.662C611.712 198.08 606.921 181.692 600.648 162.5L593.272 159.629C599.077 186.928 602.978 204.153 604.972 211.281ZM515.048 160.691L514.793 160.01L524.863 155.859L524.993 156.823C526.997 171.647 528 183.358 528 191.962V218.228L511.919 241.138L513.538 236.274C515.504 230.372 516.5 216.906 516.5 195.967C516.5 175.109 515.999 163.229 515.048 160.691ZM518 195.967C518 213.324 517.321 225.58 515.948 232.786L526.5 217.753V191.962C526.5 183.623 525.546 172.296 523.636 157.988L516.66 160.864C517.567 164.623 518 176.226 518 195.967Z" fill="#007B3D"/>
<path d="M577.531 160.641L578.969 160.214L646.987 390.04C650.874 410.354 664.883 420.465 689.25 420.465C713.628 420.465 733.671 404.174 749.4 371.45L750.751 372.101C734.795 405.297 714.287 421.966 689.25 421.966C664.201 421.966 649.544 411.388 645.531 390.394L577.531 160.641ZM614.509 346.518L615.991 346.748C608.273 396.802 593.765 421.966 572.25 421.966C554.843 421.966 543.261 367.751 538.501 264.076C537.603 244.528 537.103 211.149 537 163.933L538.5 163.929C538.603 211.125 539.103 244.487 539.999 264.007C544.698 366.332 556.262 420.465 572.25 420.465C592.735 420.465 606.893 395.907 614.509 346.518Z" fill="#007B3D"/>
<path fill-rule="evenodd" clip-rule="evenodd" d="M689.228 321.897L741.619 316.39L744.717 345.873L692.327 351.38L689.228 321.897ZM640.635 269.042L635.711 222.196C637.687 217.131 642.892 214.155 651.326 213.269C659.76 212.382 665.47 214.211 668.456 218.755L673.379 265.601L640.635 269.042ZM778.161 254.588L745.416 258.029L740.493 211.184C742.468 206.118 747.673 203.142 756.107 202.256C764.541 201.369 770.251 203.198 773.237 207.742L778.161 254.588Z" fill="#007B3D"/>
<path fill-rule="evenodd" clip-rule="evenodd" d="M636.521 321.059L628.912 248.661C632.1 240.818 640.442 236.188 653.936 234.77C667.431 233.351 676.553 236.146 681.302 243.154L688.912 315.552L636.521 321.059ZM793.693 304.539L741.302 310.046L733.693 237.648C736.882 229.805 745.223 225.175 758.718 223.757C772.212 222.338 781.334 225.133 786.084 232.141L793.693 304.539Z" fill="white"/>
<path fill-rule="evenodd" clip-rule="evenodd" d="M636.192 321.261L628.582 248.863C631.771 241.02 640.112 236.39 653.607 234.972C667.102 233.553 676.224 236.348 680.973 243.357L688.582 315.754L636.192 321.261ZM793.364 304.741L740.973 310.248L733.364 237.85C736.552 230.007 744.894 225.377 758.388 223.959C771.883 222.54 781.005 225.335 785.754 232.344L793.364 304.741Z" fill="white" stroke="#007B3D" stroke-width="1.5" stroke-linecap="round" stroke-linejoin="round"/>
<path fill-rule="evenodd" clip-rule="evenodd" d="M634.906 401.3L626.103 317.546C630.657 308.382 642.212 302.825 660.767 300.875C679.322 298.925 691.78 301.958 698.14 309.975L706.943 393.729L634.906 401.3ZM811.724 382.716L739.687 390.287L730.884 306.533C735.439 297.369 746.994 291.812 765.549 289.862C784.104 287.912 796.561 290.945 802.921 298.962L811.724 382.716Z" fill="white"/>
<path d="M634.753 402.071C634.341 402.115 633.972 401.816 633.929 401.403L625.126 317.649C625.111 317.507 625.137 317.364 625.201 317.236C629.894 307.792 641.674 302.127 660.458 300.153C679.242 298.179 691.942 301.271 698.496 309.532C698.585 309.644 698.64 309.779 698.655 309.921L707.458 393.675C707.501 394.087 707.203 394.457 706.791 394.5L634.753 402.071ZM705.888 393.085L697.186 310.297C690.978 302.651 678.808 299.734 660.615 301.646C642.422 303.558 631.124 308.942 626.641 317.712L635.342 400.5L705.888 393.085ZM812.239 382.662C812.283 383.074 811.984 383.444 811.572 383.487L739.535 391.059C739.123 391.102 738.754 390.803 738.71 390.39L729.907 306.636C729.893 306.494 729.918 306.351 729.982 306.223C734.675 296.779 746.456 291.114 765.239 289.14C784.023 287.166 796.723 290.258 803.278 298.519C803.367 298.631 803.422 298.766 803.436 298.908L812.239 382.662ZM810.669 382.072L801.968 299.284C795.759 291.638 783.589 288.721 765.396 290.633C747.203 292.545 735.906 297.929 731.422 306.699L740.124 389.487L810.669 382.072Z" fill="#007B3D"/>
<path fill-rule="evenodd" clip-rule="evenodd" d="M671.985 409.824C652.092 411.915 635.388 408.109 634.675 401.325C633.962 394.54 649.51 387.345 669.402 385.254C689.295 383.164 705.999 386.969 706.712 393.753C707.425 400.538 691.877 407.733 671.985 409.824ZM776.766 398.811C756.874 400.902 740.169 397.096 739.456 390.312C738.743 383.527 754.291 376.332 774.184 374.241C794.076 372.151 810.78 375.956 811.493 382.74C812.207 389.525 796.659 396.72 776.766 398.811Z" fill="#007B3D"/>
<path d="M616.967 335.215C623.256 334.554 627.819 328.917 627.157 322.624C626.496 316.332 620.861 311.767 614.572 312.428C608.283 313.089 603.72 318.726 604.382 325.018C605.043 331.311 610.678 335.876 616.967 335.215ZM616.81 333.721C611.345 334.296 606.448 330.329 605.874 324.861C605.299 319.394 609.264 314.496 614.729 313.921C620.195 313.347 625.091 317.314 625.666 322.781C626.24 328.249 622.276 333.147 616.81 333.721Z" fill="#007B3D"/>
<path d="M376.889 347.604L386.994 343.925C387.383 343.783 387.813 343.985 387.955 344.374C388.096 344.764 387.895 345.195 387.506 345.336L378.522 348.607L387.631 353.995C387.988 354.206 388.106 354.667 387.896 355.024C387.685 355.381 387.225 355.499 386.868 355.288L376.697 349.271L376.506 349.341C376.418 349.373 376.327 349.388 376.238 349.386C357.875 373.867 353.627 398.019 363.444 421.931C373.013 445.242 377.314 453.563 384.564 460.744C392.922 469.022 404.432 473.325 424.332 475.53C461.861 479.688 483.78 467.237 493.542 439.486C499.642 422.148 503.131 410.006 504.006 403.101C504.058 402.69 504.433 402.398 504.844 402.451C505.255 402.503 505.546 402.879 505.494 403.29C504.601 410.332 501.09 422.55 494.957 439.985C484.954 468.422 462.364 481.254 424.167 477.023C403.961 474.784 392.147 470.367 383.509 461.811C376.06 454.433 371.708 446.013 362.056 422.502C351.973 397.939 356.42 373.1 375.345 348.078C377.382 322.671 386.594 298.892 402.973 276.752C419.302 254.68 436.129 238.087 453.461 226.977C465.176 195.904 482.185 175.096 504.496 164.596C515.612 159.364 523.955 155.887 529.539 154.16C533.279 153.004 535.941 152.578 537.43 153.048L540.001 105.826C540.023 105.412 540.377 105.095 540.791 105.115C541.204 105.14 541.521 105.494 541.499 105.908L538.824 155.031C538.771 156.004 537.325 155.965 537.325 154.991C537.325 154.072 535.011 154.04 529.982 155.595C524.479 157.297 516.192 160.751 505.134 165.955C483.154 176.299 466.366 196.878 454.777 227.739C454.72 227.891 454.615 228.021 454.479 228.108C437.24 239.112 420.471 255.623 404.178 277.646C388.091 299.391 378.998 322.706 376.889 347.604Z" fill="#007B3D"/>
<path fill-rule="evenodd" clip-rule="evenodd" d="M538.25 148.915L531.225 166.703C530.82 167.73 531.323 168.892 532.351 169.298C532.755 169.457 533.201 169.481 533.62 169.365L563.623 161.041L583.479 168.113C584.52 168.484 585.663 167.941 586.034 166.9C586.256 166.278 586.156 165.586 585.767 165.052L574.75 149.916C572.707 151.695 568.329 152.585 561.617 152.585C554.905 152.585 547.116 151.362 538.25 148.915Z" fill="white"/>
<path d="M563.156 161.588L534.321 169.587C533.745 169.747 533.132 169.715 532.576 169.495C531.163 168.936 530.471 167.336 531.029 165.922L538.053 148.138C538.193 147.781 538.58 147.588 538.949 147.69C547.755 150.121 555.479 151.334 562.117 151.334C568.659 151.334 572.892 150.473 574.758 148.849C575.089 148.56 575.597 148.617 575.856 148.973L586.869 164.104C587.404 164.839 587.542 165.791 587.238 166.648C586.728 168.081 585.156 168.829 583.725 168.319L564.659 161.528C564.693 161.813 564.732 162.147 564.776 162.531C564.964 164.16 565.245 166.684 565.621 170.106C566.371 176.948 567.496 187.377 568.996 201.393C569.04 201.805 568.742 202.175 568.33 202.219C567.918 202.263 567.548 201.965 567.504 201.553C566.004 187.538 564.879 177.11 564.129 170.27C563.755 166.851 563.473 164.328 563.286 162.703C563.236 162.266 563.192 161.894 563.156 161.588ZM563.137 152.829C563.302 153.472 563.459 154.189 563.609 154.971C563.855 156.247 564.047 157.474 564.273 159.093L564.369 159.779C564.372 159.798 564.374 159.816 564.377 159.834L584.228 166.904C584.878 167.136 585.593 166.796 585.824 166.145C585.963 165.755 585.9 165.323 585.657 164.989L575.093 150.475C572.828 151.985 568.855 152.749 563.137 152.829ZM562.9 160.1C562.895 160.065 562.89 160.028 562.884 159.989L562.788 159.302C562.565 157.706 562.376 156.5 562.136 155.255C561.961 154.345 561.778 153.532 561.587 152.833C555.09 152.772 547.629 151.599 539.2 149.315L532.424 166.474C532.17 167.117 532.485 167.844 533.127 168.098C533.38 168.198 533.659 168.213 533.921 168.14L562.9 160.1Z" fill="#007B3D"/>
<path fill-rule="evenodd" clip-rule="evenodd" d="M460.75 320.753C502.242 254.544 526.075 218.003 532.25 211.131C537.069 205.768 545.323 205.327 550.687 210.146C554.7 213.753 556.082 219.457 554.163 224.5L539.25 263.689" fill="white"/>
<path d="M461.211 321.504C502.655 255.371 526.504 218.807 532.633 211.986C537.178 206.928 544.957 206.516 550.009 211.066C553.79 214.47 555.089 219.852 553.279 224.609L538.375 263.774L539.776 264.309L554.68 225.143C556.711 219.806 555.254 213.769 551.012 209.949C545.345 204.845 536.617 205.307 531.518 210.982C525.298 217.904 501.48 254.421 459.94 320.706L461.211 321.504Z" fill="#007B3D"/>
<path fill-rule="evenodd" clip-rule="evenodd" d="M553.432 77.3644C552.265 77.0198 551.029 76.8349 549.75 76.8349C542.57 76.8349 536.75 82.6616 536.75 89.8493C536.75 95.9563 540.952 101.081 546.619 102.484L546.031 114.593C545.874 117.823 543.187 120.347 539.954 120.302L524.524 120.085C523.535 120.071 522.552 119.924 521.601 119.647C515.769 117.948 512.418 111.842 514.117 106.009L531.076 47.8028H533.083L533.091 47.7915L535.444 47.8028H544.25L544.252 47.8452L565.169 47.9459C562.754 59.0538 560.585 66.4767 558.663 70.2144C557.29 72.8833 555.546 75.2666 553.432 77.3644ZM624.496 47.8028C626.465 56.1454 623.418 60.3167 615.356 60.3167C607.293 60.3167 595.2 56.1454 579.076 47.8028H624.496Z" fill="#007B3D"/>
<path fill-rule="evenodd" clip-rule="evenodd" d="M439.437 338.226L507.329 277.732C517.212 268.925 530.033 264.136 543.27 264.307L620.576 265.302C631.136 265.437 639.767 273.766 640.28 284.314C640.766 294.298 633.066 302.785 623.082 303.27C622.855 303.281 622.628 303.288 622.401 303.29L556.951 304.007C552.947 304.05 549.736 307.332 549.78 311.336C549.78 311.339 549.78 311.341 549.78 311.344C549.829 315.398 553.07 318.69 557.123 318.801L624.681 320.652C633.886 320.905 641.232 328.414 641.28 337.623C641.328 346.698 634.01 354.093 624.936 354.141C624.907 354.141 624.878 354.141 624.849 354.141H560.451C556.491 354.141 553.28 357.352 553.28 361.313C553.28 361.342 553.28 361.371 553.28 361.399C553.332 365.755 556.11 369.609 560.224 371.038L601.46 385.353C608.596 387.83 612.372 395.623 609.895 402.759C609.785 403.075 609.663 403.388 609.53 403.696C606.229 411.34 597.627 415.187 589.728 412.551L522.693 390.181L486.426 414.386C467.826 426.799 442.685 421.785 430.272 403.185C429.104 401.436 428.075 399.598 427.193 397.689C424.034 390.852 423.049 381.057 424.237 368.303C425.317 356.715 430.748 345.968 439.437 338.226Z" fill="white"/>
<path d="M436.736 409.32L449.382 401.181C445.043 397.033 441.539 391.937 438.579 386.012C434.29 377.424 435.7 361.001 442.729 336.639L440.334 338.773C431.773 346.401 426.422 356.997 425.362 368.421C424.192 381.031 425.166 390.686 428.256 397.374C429.118 399.238 430.122 401.033 431.26 402.742C432.879 405.174 434.719 407.369 436.736 409.32ZM437.871 410.375C451.05 422.156 470.985 424.044 486.37 413.776L489.869 411.441C475.966 413.954 464.657 411.902 455.595 406.08C453.789 404.92 452.102 403.635 450.523 402.232L437.871 410.375ZM443.528 333.917C443.529 333.913 443.53 333.908 443.531 333.904C443.617 333.618 443.857 333.421 444.133 333.377L507.218 277.166C517.238 268.238 530.231 263.383 543.645 263.556L620.989 264.551C631.934 264.692 640.88 273.333 641.412 284.278C641.917 294.675 633.908 303.514 623.522 304.02C623.286 304.031 623.049 304.038 622.813 304.041L557.334 304.757C553.748 304.797 550.873 307.738 550.913 311.328L550.913 311.335C550.957 314.986 553.873 317.95 557.518 318.05L625.102 319.902C634.702 320.165 642.362 328.005 642.413 337.619C642.463 347.108 634.819 354.842 625.34 354.892L625.25 354.892H560.826C557.284 354.892 554.412 357.767 554.412 361.313C554.412 361.352 554.412 361.352 554.413 361.39C554.461 365.429 557.034 369.003 560.846 370.326L602.1 384.648C609.615 387.257 613.595 395.471 610.989 402.996C610.872 403.333 610.743 403.666 610.601 403.994C607.145 411.997 598.148 416.024 589.885 413.267L523.186 391.01L487.202 415.026C468.251 427.674 442.646 422.547 430.012 403.575C428.831 401.802 427.789 399.939 426.895 398.005C423.675 391.036 422.676 381.132 423.869 368.282C424.964 356.479 430.492 345.532 439.336 337.651L443.528 333.917ZM444.843 334.755C437.337 360.04 435.725 376.94 439.921 385.34C444.067 393.642 449.289 400.244 456.405 404.816C465.669 410.768 477.396 412.638 492.092 409.469C492.297 409.425 492.5 409.469 492.663 409.576L522.965 389.353L590.36 411.842C597.884 414.353 606.077 410.686 609.224 403.398C609.351 403.104 609.467 402.806 609.572 402.504C611.907 395.763 608.341 388.404 601.608 386.066L560.355 371.745C555.946 370.214 552.969 366.08 552.913 361.408C552.912 361.361 552.912 361.361 552.912 361.313C552.912 356.938 556.455 353.39 560.826 353.39H625.25L625.333 353.39C633.983 353.344 640.958 346.287 640.913 337.627C640.866 328.823 633.852 321.644 625.061 321.403L557.477 319.551C553.026 319.429 549.466 315.81 549.413 311.353L549.413 311.344C549.364 306.925 552.904 303.304 557.317 303.256L622.796 302.539C623.014 302.537 623.232 302.531 623.449 302.52C633.008 302.054 640.379 293.919 639.914 284.351C639.42 274.199 631.122 266.183 620.97 266.053L543.625 265.057C530.586 264.889 517.956 269.609 508.215 278.288L444.843 334.755Z" fill="#007B3D"/>
<path fill-rule="evenodd" clip-rule="evenodd" d="M777.828 282.779L777.837 284.815C777.885 295.196 786.314 303.585 796.695 303.585H810.924C799.167 304.49 791.5 308.327 787.924 315.098C782.292 325.762 786.371 338.974 797.035 344.606C800.178 346.266 803.679 347.134 807.234 347.134H813.424L811.733 347.964C799.836 353.802 794.924 368.179 800.763 380.077C801.115 380.794 801.502 381.494 801.924 382.172C807.609 390.09 818.635 391.9 826.553 386.216C827.082 385.836 827.59 385.427 828.074 384.991L839.111 375.046C845.206 369.555 848.074 361.33 846.714 353.239C846.615 352.649 846.518 352.116 846.424 351.639C845.849 348.72 843.849 344.382 840.424 338.624C842.758 333.952 843.424 328.279 842.424 321.605C841.424 314.931 838.591 309.092 833.924 304.086C836.197 298.259 836.53 291.752 834.924 284.564C834.288 281.718 833.408 279.292 832.282 277.287C830.218 273.61 826.498 271.162 822.304 270.722L794.394 267.791C786.155 266.926 778.775 272.904 777.91 281.143C777.852 281.687 777.825 282.233 777.828 282.779Z" fill="white"/>
<path d="M813.635 345.882L840.218 337.504C842.365 333.035 842.966 327.61 842.008 321.216C841.034 314.711 838.28 309.024 833.739 304.138L833.735 304.336L810.693 303.884C799.518 304.854 792.289 308.556 788.913 314.949C783.477 325.241 787.405 337.996 797.686 343.438C800.719 345.043 804.097 345.882 807.528 345.882H813.635ZM814.029 347.332L812.375 348.144C800.868 353.791 796.112 367.708 801.753 379.227C802.096 379.929 802.475 380.612 802.859 381.234C808.308 388.823 818.871 390.553 826.452 385.098C826.953 384.737 827.435 384.349 827.894 383.935L838.922 374C844.837 368.67 847.618 360.682 846.294 352.827C846.198 352.258 846.105 351.744 846.014 351.283C845.476 348.555 843.607 344.454 840.408 339.019L814.029 347.332ZM811.252 302.393L833.733 302.834C835.784 297.275 836.049 291.078 834.518 284.228C833.898 281.452 833.043 279.097 831.958 277.162C830.012 273.692 826.506 271.383 822.554 270.968L794.64 268.038C786.812 267.216 779.802 272.902 778.981 280.737C778.927 281.254 778.901 281.773 778.903 282.292L778.913 284.311C778.959 294.278 787.044 302.334 797 302.334H811.25L811.252 302.393ZM787.587 314.247C790.257 309.192 795.088 305.727 802.046 303.836H797C786.218 303.836 777.463 295.112 777.413 284.318L777.403 282.299C777.401 281.725 777.429 281.151 777.489 280.581C778.396 271.92 786.145 265.636 794.796 266.544L822.71 269.475C827.147 269.941 831.082 272.532 833.266 276.427C834.427 278.498 835.332 280.989 835.982 283.9C837.579 291.048 837.294 297.56 835.116 303.418C839.697 308.458 842.492 314.322 843.492 320.993C844.487 327.638 843.862 333.341 841.602 338.089C844.941 343.742 846.902 348.03 847.486 350.993C847.579 351.467 847.675 351.995 847.773 352.577C849.183 360.939 846.222 369.443 839.925 375.116L828.898 385.052C828.398 385.502 827.873 385.925 827.327 386.318C819.073 392.257 807.573 390.373 801.613 382.068C801.174 381.363 800.772 380.635 800.406 379.888C794.588 368.007 799.159 353.73 810.589 347.384H807.528C803.853 347.384 800.234 346.485 796.985 344.765C785.971 338.936 781.764 325.272 787.587 314.247ZM796.978 272.035C797.393 272.029 797.733 272.361 797.739 272.775C797.745 273.19 797.414 273.531 797 273.536C791.471 273.615 789.018 276.922 789.492 283.848C789.969 290.806 792.432 293.928 796.942 293.613C797.355 293.584 797.713 293.896 797.742 294.309C797.771 294.723 797.46 295.082 797.047 295.111C791.561 295.494 788.523 291.642 787.996 283.951C787.467 276.229 790.51 272.127 796.978 272.035ZM804.147 314.851C804.56 314.816 804.923 315.123 804.957 315.536C804.992 315.95 804.686 316.313 804.273 316.348C798.763 316.811 796.546 320.282 797.503 327.158C798.464 334.065 801.138 337.008 805.616 336.379C806.026 336.321 806.405 336.607 806.463 337.018C806.521 337.429 806.235 337.808 805.825 337.866C800.379 338.631 797.08 335 796.018 327.365C794.951 319.698 797.7 315.394 804.147 314.851ZM814.66 358.636C815.066 358.552 815.463 358.812 815.548 359.218C815.633 359.624 815.373 360.021 814.968 360.106C809.556 361.238 807.778 364.953 809.566 371.661C811.362 378.4 814.375 380.995 818.742 379.825C819.142 379.718 819.553 379.955 819.66 380.356C819.768 380.756 819.53 381.168 819.13 381.275C813.819 382.698 810.102 379.496 808.117 372.047C806.124 364.568 808.328 359.961 814.66 358.636Z" fill="#007B3D"/>
<path fill-rule="evenodd" clip-rule="evenodd" d="M164.971 492.988L189.25 746.547H201.75L189.845 490.546C189.533 483.829 183.834 478.636 177.116 478.949C176.91 478.958 176.705 478.973 176.5 478.993C169.455 479.68 164.296 485.942 164.971 492.988Z" fill="white"/>
<path d="M164.224 492.587L188.568 746.824H202.536L190.594 490.039C190.263 482.908 184.213 477.395 177.081 477.727C176.863 477.737 176.645 477.753 176.427 477.774C168.97 478.501 163.51 485.129 164.224 492.587ZM189.932 745.324L165.718 492.445C165.082 485.81 169.939 479.914 176.573 479.267C176.765 479.248 176.958 479.234 177.151 479.225C183.455 478.932 188.803 483.805 189.096 490.109L200.964 745.324H189.932Z" fill="#007B3D"/>
<path d="M183.123 753.867C182.966 754.25 182.528 754.434 182.145 754.277C181.761 754.12 181.578 753.682 181.735 753.299C191.63 729.105 197.39 712.199 199.011 702.625C199.08 702.216 199.467 701.941 199.875 702.01C200.284 702.079 200.559 702.466 200.49 702.875C198.845 712.591 193.058 729.574 183.123 753.867ZM198.461 669.214C198.593 669.606 198.381 670.032 197.989 670.163C197.596 670.295 197.171 670.083 197.039 669.691C192.635 656.558 183.738 645.354 170.323 636.069C169.983 635.833 169.898 635.366 170.133 635.025C170.369 634.685 170.836 634.6 171.177 634.835C184.847 644.298 193.95 655.76 198.461 669.214ZM187.701 722.394C187.53 722.772 187.086 722.939 186.709 722.768C186.331 722.597 186.164 722.153 186.335 721.775C187.673 718.823 188.569 716.418 189.022 714.571C195.247 689.189 191.388 670.641 180.367 657.458C180.101 657.14 180.143 656.667 180.461 656.402C180.779 656.136 181.252 656.178 181.518 656.496C192.853 670.056 196.814 689.095 190.478 714.928C190 716.879 189.074 719.365 187.701 722.394ZM170.022 480.593C169.97 480.182 170.26 479.806 170.671 479.754C171.082 479.701 171.458 479.992 171.51 480.403C178.009 531.351 202.399 558.294 244.785 561.457C245.198 561.488 245.508 561.848 245.477 562.261C245.446 562.674 245.086 562.984 244.673 562.953C201.525 559.733 176.606 532.205 170.022 480.593ZM181.003 479.821C180.964 479.408 181.267 479.042 181.679 479.003C182.092 478.964 182.458 479.266 182.497 479.679C186.757 524.541 207.037 547.93 243.473 550.611C243.886 550.641 244.196 551.001 244.166 551.414C244.136 551.827 243.776 552.137 243.363 552.107C206.141 549.368 185.328 525.365 181.003 479.821Z" fill="#007B3D"/>
<path fill-rule="evenodd" clip-rule="evenodd" d="M580.25 81.8404C578.317 81.8404 576.75 80.0476 576.75 77.836C576.75 75.6244 578.317 73.8316 580.25 73.8316C582.183 73.8316 583.75 75.6244 583.75 77.836C583.75 80.0476 582.183 81.8404 580.25 81.8404ZM611.25 81.8404C609.317 81.8404 607.75 80.0476 607.75 77.836C607.75 75.6244 609.317 73.8316 611.25 73.8316C613.183 73.8316 614.75 75.6244 614.75 77.836C614.75 80.0476 613.183 81.8404 611.25 81.8404ZM573.322 74.3168C573.055 74.6333 572.581 74.6725 572.265 74.4045C571.949 74.1365 571.91 73.6628 572.178 73.3463C572.297 73.2054 572.512 72.9706 572.811 72.673C573.306 72.1809 573.864 71.6894 574.475 71.2295C576.254 69.8891 578.114 69.0763 579.991 69.0763C582.707 69.0763 584.194 69.7261 585.695 71.3747C585.932 71.635 586.172 71.9195 586.487 72.3087C586.58 72.4232 587.152 73.1372 587.332 73.3574C587.593 73.6788 587.545 74.1518 587.224 74.4137C586.903 74.6756 586.43 74.6273 586.169 74.3058C585.985 74.0804 585.411 73.3647 585.322 73.2547C585.023 72.886 584.8 72.6212 584.586 72.3861C583.371 71.0516 582.287 70.578 579.991 70.578C578.497 70.578 576.919 71.2668 575.377 72.4293C574.824 72.8453 574.317 73.2923 573.868 73.7388C573.601 74.0042 573.415 74.2074 573.322 74.3168ZM605.34 74.2957C605.084 74.6217 604.612 74.6781 604.286 74.4218C603.961 74.1654 603.904 73.6934 604.16 73.3674C604.271 73.2262 604.471 72.9911 604.75 72.6929C605.211 72.1999 605.73 71.7073 606.298 71.2461C607.961 69.8964 609.705 69.0763 611.474 69.0763C614.023 69.0763 615.425 69.7364 616.828 71.3954C617.048 71.656 617.271 71.9406 617.564 72.33C617.65 72.4444 618.182 73.1584 618.348 73.3786C618.598 73.7093 618.533 74.1802 618.202 74.4304C617.872 74.6805 617.402 74.6153 617.152 74.2845C616.982 74.0591 616.449 73.3434 616.366 73.2335C616.089 72.8649 615.881 72.6003 615.683 72.3654C614.564 71.0414 613.579 70.578 611.474 70.578C610.113 70.578 608.664 71.2595 607.242 72.4127C606.731 72.8274 606.262 73.2733 605.845 73.7188C605.598 73.9838 605.425 74.1867 605.34 74.2957ZM600.076 88.0973H605.979L599.377 71.1004C599.226 70.7139 599.418 70.2788 599.804 70.1285C600.19 69.9782 600.624 70.1696 600.775 70.5561L607.775 88.576C607.966 89.0682 607.603 89.599 607.076 89.599H600.076C599.661 89.599 599.326 89.2628 599.326 88.8482C599.326 88.4335 599.661 88.0973 600.076 88.0973ZM596.43 98.52C596.065 98.7158 595.61 98.5782 595.415 98.2127C595.219 97.8472 595.356 97.3921 595.721 97.1963C598.438 95.7392 601.055 95.7392 603.467 97.2178C603.821 97.4343 603.932 97.8965 603.715 98.2502C603.499 98.6038 603.037 98.715 602.684 98.4985C600.741 97.3074 598.691 97.3074 596.43 98.52Z" fill="#007B3D"/>
<path fill-rule="evenodd" clip-rule="evenodd" d="M44.75 538.302L84.75 661.939L282.25 635.41V490.75L87.1407 529.815L84.75 546.812L71.9544 532.855L44.75 538.302Z" fill="white"/>
<path d="M72.5073 531.89C72.33 531.697 72.0645 531.61 71.8072 531.662L44.6028 537.109C44.1631 537.197 43.8984 537.648 44.0365 538.075L84.0365 661.712C84.1481 662.057 84.4905 662.273 84.8499 662.224L282.35 635.695C282.722 635.645 283 635.327 283 634.952V490.292C283 489.818 282.567 489.463 282.103 489.556L86.9935 528.621C86.6812 528.684 86.4424 528.937 86.3981 529.252L84.2287 544.675L72.5073 531.89ZM71.6873 533.216L84.1972 546.861C84.6256 547.328 85.4045 547.086 85.4927 546.458L87.8094 529.988L281.5 491.207V634.296L85.2709 660.654L45.7228 538.414L71.6873 533.216Z" fill="#007B3D"/>
<path fill-rule="evenodd" clip-rule="evenodd" d="M0.75 882.464H67.25C93.4437 814.216 117.493 771.606 139.398 754.633C140.692 753.63 132.976 742.515 116.25 721.286C127.092 729.868 134.592 735.374 138.75 737.804C140.708 738.948 140.875 722.597 139.25 688.75L157.154 743.007C163.971 739.58 169.169 737.179 172.75 735.802C223.083 716.447 264.417 765.334 296.75 882.464H972.75" fill="white"/>
<path d="M138.372 738.212C139.085 738.629 139.729 738.243 140.08 737.492C140.308 737.004 140.483 736.265 140.626 735.246C140.897 733.306 141.052 730.285 141.094 726.167C141.168 718.882 140.888 708.142 140.253 693.943L156.442 743.003C156.586 743.438 157.082 743.644 157.491 743.438C164.287 740.022 169.466 737.629 173.019 736.263C222.761 717.136 263.798 765.673 296.027 882.424C296.117 882.75 296.413 882.975 296.75 882.975H972.75C973.164 882.975 973.5 882.639 973.5 882.225C973.5 881.811 973.164 881.475 972.75 881.475H297.321C264.905 764.364 223.327 715.311 172.481 734.863C169.01 736.197 164.051 738.478 157.594 741.708L139.962 688.276C139.689 687.447 138.459 687.675 138.501 688.547C139.313 705.457 139.677 717.994 139.594 726.152C139.552 730.21 139.4 733.177 139.14 735.039C139.033 735.803 138.909 736.367 138.781 736.712C134.596 734.206 127.232 728.784 116.715 720.459C116.018 719.907 115.11 720.812 115.661 721.511C124.015 732.114 130.118 740.19 133.965 745.733C135.878 748.489 137.23 750.614 138.016 752.097C138.394 752.809 138.634 753.363 138.737 753.74C138.757 753.814 138.77 753.876 138.778 753.926C116.826 771.051 92.8401 813.551 66.7346 881.475H0.75C0.335786 881.475 0 881.811 0 882.225C0 882.639 0.335786 882.975 0.75 882.975H67.25C67.5605 882.975 67.8389 882.783 67.9502 882.493C94.0969 814.368 118.094 771.85 139.857 754.987C141.087 754.034 139.581 751.193 135.197 744.878C131.945 740.193 127.103 733.724 120.67 725.47C128.939 731.901 134.834 736.145 138.372 738.212Z" fill="#007B3D"/>
<path d="M587.976 0H559.571C546.81 0 536.449 10.2932 536.322 23.0391L519.459 47.3749C519.114 47.8728 519.47 48.5537 520.075 48.5537H634.075C634.737 48.5537 635.075 47.7583 634.615 47.2815L610.224 21.9694C610.061 9.80813 600.163 0 587.976 0ZM537.688 23.7037C537.775 23.578 537.821 23.4287 537.821 23.2757C537.821 11.2502 547.559 1.50166 559.571 1.50166H587.976C599.436 1.50166 608.726 10.802 608.726 22.2746C608.726 22.4691 608.802 22.6559 608.937 22.7959L632.31 47.052H521.509L537.688 23.7037Z" fill="#007B3D"/>
<path fill-rule="evenodd" clip-rule="evenodd" d="M609.169 22.7751L536.75 23.7763L531.75 31.2845H617.25L609.169 22.7751Z" fill="#D5F5E6"/>
<path d="M609.659 21.5238L537.24 22.525C536.993 22.5284 536.763 22.6534 536.626 22.8592L531.626 30.3675C531.294 30.8665 531.651 31.5348 532.25 31.5348H617.75C618.409 31.5348 618.748 30.7449 618.294 30.2667L610.213 21.7573C610.068 21.6056 609.868 21.521 609.659 21.5238ZM616.002 30.0332H533.651L537.655 24.021L609.351 23.0299L616.002 30.0332Z" fill="#007B3D"/>
<path fill-rule="evenodd" clip-rule="evenodd" d="M406.25 862.703L397.75 903.749H430.75H558.75C551.368 888.155 542.702 877.309 532.75 871.213C522.798 865.116 504.632 862.28 478.25 862.703L491.75 792.626L410.75 793.126L409.75 845.684L406.25 862.703Z" fill="white"/>
<path fill-rule="evenodd" clip-rule="evenodd" d="M623.75 856.697V904.249L643.75 903.749H771.75C764.368 888.155 755.702 877.309 745.75 871.213C735.798 865.116 717.632 862.279 691.25 862.703L703.75 793.75L616.25 793.126L622.75 845.684L623.75 856.697Z" fill="white"/>
<path fill-rule="evenodd" clip-rule="evenodd" d="M409.75 846.185C417.406 847.425 423.406 852.264 427.75 860.701C432.094 869.139 434.428 880.484 434.75 894.739L399.75 894.238" fill="#D5F5E6"/>
<path fill-rule="evenodd" clip-rule="evenodd" d="M623.75 846.185C637.406 849.427 646.406 855.267 650.75 863.704C655.094 872.142 657.094 882.487 656.75 894.739L623.75 894.238V846.185Z" fill="#D5F5E6"/>
<path d="M434.622 792.729L440.19 754.333H428.25V752.833H440.407L443.383 732.308H432.75V730.808H490.75V732.308H479.124L475.321 752.833H486.25V754.333H475.043L467.967 792.523L492.659 792.371L481.599 849.784L485.419 839.309C485.579 838.869 485.779 838.445 486.016 838.041C488.185 834.346 492.938 833.108 496.633 835.277C497.255 835.642 497.816 836.103 498.294 836.643C500.802 839.475 500.54 843.805 497.707 846.313L479.931 862.056C483.277 861.223 491.492 859.112 503.561 855.971C503.962 855.866 504.371 856.107 504.476 856.508C504.58 856.908 504.34 857.318 503.939 857.422C495.147 859.711 488.806 861.351 484.622 862.415C507.708 862.521 523.869 865.393 533.142 871.074C543.233 877.255 551.989 888.213 559.428 903.928L559.935 904.999H396.829L405.515 863.053L409.001 846.102L410.014 792.881L434.622 792.729ZM436.139 792.72L450.644 792.63L456.505 754.333H441.705L436.139 792.72ZM452.163 792.621L466.44 792.533L473.517 754.333H458.023L452.163 792.621ZM478.885 863.944C478.821 863.957 478.755 863.961 478.688 863.956L461.772 864.454C461.358 864.466 461.012 864.14 461 863.726C460.988 863.312 461.314 862.967 461.728 862.955L476.835 862.51L458.546 846.313C455.714 843.805 455.451 839.475 457.959 836.643C458.437 836.103 458.998 835.642 459.62 835.277C463.315 833.108 468.069 834.346 470.237 838.041C470.474 838.445 470.674 838.869 470.834 839.309L478.127 859.305L478.361 858.663L490.84 793.882L411.486 794.372L410.511 845.623C426.08 850.25 435.006 866.273 435.489 893.488H552.121C546.216 883.848 539.626 876.805 532.358 872.353C522.637 866.398 504.798 863.577 478.885 863.944ZM479.811 859.065L479.557 860.383L496.713 845.19C498.925 843.231 499.13 839.85 497.171 837.638C496.797 837.216 496.36 836.856 495.874 836.57C492.893 834.821 489.059 835.82 487.31 838.8C487.119 839.126 486.957 839.468 486.828 839.823L479.811 859.065ZM553.022 894.988H400.434L398.671 903.499H557.559C556.096 900.476 554.584 897.639 553.022 894.988ZM400.744 893.488H433.989C433.514 867.016 424.983 851.63 410.321 847.133L406.984 863.356L400.744 893.488ZM469.425 839.823C469.296 839.468 469.135 839.126 468.943 838.8C467.194 835.82 463.36 834.821 460.379 836.57C459.893 836.856 459.456 837.216 459.082 837.638C457.123 839.85 457.328 843.231 459.54 845.19L477.031 860.68L469.425 839.823ZM477.598 732.308H461.394L458.252 752.833H473.795L477.598 732.308ZM459.876 732.308H444.899L441.923 752.833H456.735L459.876 732.308Z" fill="#007B3D"/>
<path fill-rule="evenodd" clip-rule="evenodd" d="M403.25 258.536H386.75L404.75 230.004" fill="#D5F5E6"/>
<path d="M633.825 792.477L628.294 754.333H618.75V752.833H628.077L625.101 732.308H615.75V730.808H676.25V732.308H663.329L665.396 752.833H676.75V754.333H665.547L669.409 792.68L704.64 792.882L693.234 859.01L700.419 839.309C700.579 838.869 700.779 838.445 701.016 838.041C703.185 834.346 707.938 833.108 711.633 835.277C712.255 835.642 712.816 836.103 713.294 836.643C715.802 839.475 715.54 843.805 712.707 846.313L695.727 861.351C699.957 860.276 707.066 858.442 716.561 855.971C716.962 855.866 717.371 856.107 717.476 856.508C717.58 856.908 717.34 857.318 716.939 857.422C708.152 859.709 701.814 861.349 697.629 862.414C720.978 862.48 737.303 865.353 746.642 871.074C756.733 877.255 765.489 888.213 772.928 903.928L773.435 904.999H623.006L623 904.256L622.506 846.283L615.394 792.371L633.825 792.477ZM635.342 792.485L650.404 792.572L647.015 754.333H629.81L635.342 792.485ZM651.91 792.58L667.9 792.672L664.039 754.333H648.521L651.91 792.58ZM623.904 845.451C645.626 849.828 656.838 865.917 657.485 893.488H765.621C759.716 883.848 753.126 876.805 745.858 872.353C736.173 866.419 718.427 863.597 692.667 863.94C692.567 863.963 692.466 863.963 692.369 863.944C692.191 863.947 692.013 863.95 691.834 863.952C691.786 863.958 691.737 863.96 691.688 863.956L674.772 864.454C674.358 864.466 674.012 864.14 674 863.726C673.988 863.312 674.314 862.967 674.728 862.955L689.835 862.51L671.546 846.313C668.714 843.805 668.451 839.475 670.959 836.643C671.438 836.103 671.998 835.642 672.62 835.277C676.315 833.108 681.069 834.346 683.237 838.041C683.474 838.445 683.674 838.869 683.835 839.309L691.49 860.301L702.86 794.372L617.106 793.881L623.904 845.451ZM624.007 847.003L624.407 893.488H655.985C655.349 866.763 644.708 851.343 624.007 847.003ZM766.522 894.988H624.42L624.494 903.499H771.06C769.596 900.476 768.084 897.639 766.522 894.988ZM682.425 839.823C682.296 839.468 682.135 839.126 681.943 838.8C680.194 835.82 676.36 834.821 673.38 836.57C672.894 836.856 672.456 837.216 672.082 837.638C670.123 839.85 670.328 843.231 672.54 845.19L690.031 860.68L682.425 839.823ZM701.828 839.823L694.222 860.68L711.713 845.19C713.925 843.231 714.13 839.85 712.171 837.638C711.798 837.216 711.36 836.856 710.874 836.57C707.893 834.821 704.059 835.82 702.31 838.8C702.119 839.126 701.957 839.468 701.828 839.823ZM661.822 732.308H646.569L648.388 752.833H663.888L661.822 732.308ZM645.064 732.308H626.617L629.593 752.833H646.882L645.064 732.308Z" fill="#007B3D"/>
<path d="M145.908 591.845L147.384 601.163L138.81 602.521L139.917 609.51L128.895 611.256L127.788 604.267L97.537 609.058L96.0611 599.74L122.098 568.343L133.121 566.597L137.335 593.203L145.908 591.845ZM107.941 597.858L126.312 594.949L123.846 579.377L107.941 597.858ZM176.573 604.333C159.549 607.029 150.223 600.462 147.961 586.178C145.708 571.956 152.558 562.89 169.582 560.193C186.544 557.507 195.932 564.064 198.175 578.225C200.427 592.448 193.535 601.646 176.573 604.333ZM175.107 595.076C184.782 593.543 188.424 588.002 187.152 579.971C185.89 572.001 180.723 567.918 171.048 569.45C161.373 570.983 157.711 576.402 158.983 584.432C160.265 592.525 165.431 596.608 175.107 595.076ZM252.46 574.969L253.935 584.287L245.362 585.645L246.469 592.634L235.447 594.379L234.34 587.391L204.089 592.182L202.613 582.864L228.65 551.466L239.672 549.721L243.886 576.327L252.46 574.969ZM214.493 580.982L232.864 578.073L230.398 562.501L214.493 580.982Z" fill="#D5F5E6"/>
<path d="M147.01 590.495L148.721 601.295L140.148 602.653L141.255 609.641L128.751 611.622L127.644 604.633L97.3927 609.424L95.7465 599.03L122.18 567.154L134.223 565.247L138.437 591.853L147.01 590.495ZM137.19 593.569L132.976 566.963L122.974 568.547L97.3341 599.466L98.6396 607.708L128.891 602.917L129.997 609.906L139.538 608.394L138.432 601.406L147.005 600.048L145.764 592.211L137.19 593.569ZM106.518 598.427L124.812 577.169L127.649 595.08L106.518 598.427ZM125.933 593.833L123.837 580.602L110.322 596.306L125.933 593.833ZM177.169 604.581C160.055 607.292 150.072 600.787 147.699 585.804C145.337 570.888 152.822 561.672 169.944 558.961C187.001 556.259 197.042 562.759 199.395 577.616C201.758 592.541 194.22 601.881 177.169 604.581ZM176.935 603.1C193.199 600.524 200.142 591.922 197.913 577.851C195.696 563.85 186.451 557.865 170.178 560.442C153.842 563.03 146.954 571.51 149.181 585.569C151.419 599.699 160.606 605.686 176.935 603.1ZM175.703 595.324C165.926 596.873 160.115 592.853 158.722 584.058C157.339 575.331 161.628 569.767 171.41 568.218C181.168 566.672 186.996 570.673 188.372 579.362C189.759 588.119 185.458 593.779 175.703 595.324ZM175.468 593.843C184.419 592.425 188.145 587.52 186.89 579.596C185.647 571.744 180.602 568.28 171.644 569.699C162.663 571.122 158.954 575.934 160.203 583.823C161.464 591.785 166.495 595.264 175.468 593.843ZM253.562 573.619L255.273 584.419L246.7 585.776L247.806 592.765L235.302 594.746L234.195 587.757L203.945 592.548L202.298 582.154L228.732 550.278L240.775 548.371L244.989 574.977L253.562 573.619ZM243.742 576.693L239.528 550.087L229.526 551.671L203.886 582.589L205.191 590.832L235.442 586.041L236.549 593.029L246.09 591.518L244.983 584.53L253.557 583.172L252.315 575.335L243.742 576.693ZM213.07 581.551L231.364 560.293L234.201 578.204L213.07 581.551ZM232.485 576.957L230.389 563.726L216.874 579.43L232.485 576.957Z" fill="#007B3D"/>
<path d="M404.555 229.199C404.646 228.858 404.723 228.541 404.787 228.248L405.607 210.937C406.966 182.242 430.601 159.676 459.297 159.676H515.75V161.178H459.297C431.402 161.178 408.426 183.114 407.105 211.009L406.867 216.041C409.518 205.862 414.63 196.756 422.212 188.936C433.64 177.149 447.792 183.024 464.358 206.039C464.601 206.376 464.525 206.845 464.188 207.087C463.852 207.33 463.384 207.254 463.142 206.917C447.041 184.549 433.86 179.078 423.288 189.982C413.338 200.245 407.753 212.76 406.497 227.067C406.462 227.464 406.39 227.922 406.28 228.443L403.999 276.591L402.501 276.52L403.341 258.786H387.25C386.659 258.786 386.3 258.134 386.616 257.634L404.555 229.199ZM403.412 257.284L404.613 231.919L388.611 257.284H403.412Z" fill="#007B3D"/>
<path d="M625.91 296.404C625.496 296.388 625.173 296.039 625.189 295.625C625.205 295.21 625.553 294.887 625.967 294.903C631.492 295.114 634.115 291.94 634.004 284.998C633.891 278.026 631.596 274.779 627.076 274.858C626.661 274.865 626.32 274.535 626.313 274.12C626.305 273.705 626.635 273.363 627.049 273.356C632.547 273.26 635.379 277.266 635.503 284.974C635.628 292.714 632.374 296.651 625.91 296.404ZM624.31 349.219C623.897 349.182 623.593 348.817 623.631 348.404C623.668 347.991 624.033 347.686 624.445 347.724C629.952 348.224 632.738 345.191 632.989 338.253C633.242 331.284 631.12 327.921 626.602 327.764C626.188 327.749 625.864 327.402 625.878 326.987C625.893 326.573 626.24 326.248 626.654 326.263C632.149 326.455 634.768 330.604 634.488 338.308C634.208 346.043 630.753 349.804 624.31 349.219ZM591.525 407.662C591.146 407.496 590.973 407.053 591.14 406.673C591.306 406.293 591.748 406.12 592.128 406.287C597.225 408.521 600.622 407.055 602.68 401.722C604.751 396.353 603.664 393.04 599.409 391.407C599.022 391.258 598.829 390.824 598.978 390.437C599.127 390.05 599.56 389.856 599.947 390.005C605.046 391.962 606.428 396.174 604.079 402.262C601.717 408.386 597.412 410.242 591.525 407.662ZM537.525 207.786L538.975 208.173C536.238 218.445 530.529 224.507 521.897 226.235L521.603 224.763C529.637 223.154 534.928 217.536 537.525 207.786Z" fill="#007B3D"/>
<path d="M453.525 227.695L455.525 235.203C455.632 235.604 456.043 235.842 456.443 235.735C456.843 235.628 457.081 235.217 456.975 234.816L454.975 227.308C454.868 226.907 454.457 226.669 454.057 226.776C453.656 226.883 453.419 227.294 453.525 227.695Z" fill="#007B3D"/>
<path d="M454.081 228.233L460.581 229.735C460.985 229.828 461.388 229.576 461.481 229.172C461.574 228.768 461.322 228.365 460.919 228.271L454.419 226.77C454.015 226.677 453.612 226.929 453.519 227.333C453.426 227.737 453.678 228.14 454.081 228.233Z" fill="#007B3D"/>
<path d="M736.323 232.986C731.267 226.881 722.476 226.236 715.228 231.009C712.405 232.868 710.346 235.517 709.378 238.543C706.94 246.17 716.519 265.659 738.13 297.5C738.362 297.843 738.829 297.932 739.171 297.699C739.514 297.466 739.603 296.999 739.37 296.656C718.111 265.333 708.585 245.951 710.807 239.001C711.668 236.308 713.511 233.938 716.053 232.263C722.698 227.887 730.634 228.469 735.168 233.945C735.433 234.264 735.906 234.308 736.224 234.043C736.543 233.779 736.587 233.305 736.323 232.986Z" fill="#007B3D"/>
</svg>
